# xmcd
#
# Track frame offsets: 
#        150
#        14208
#        31648
#        45679
#        57493
#        71685
#        91459
#        106096
#        131523
#        145982
#        161396
#        170767
#        187823
#        206163
#
# Disc length: 2901 seconds
#
# Revision: 3
# Processed by: cddbd v1.5.2PL0 Copyright (c) Steve Scherf et al.
# Submitted via: ExactAudioCopy v1.3
#
DISCID=c50b530e
DTITLE=Eric Bibb - Blues, Ballads and Work Songs
DYEAR=2011
DGENRE=Blues
TTITLE0=Goin' Down The Road Feelin' Bad
TTITLE1=John Henry
TTITLE2=Take This Hammer
TTITLE3=Cocaine Blues
TTITLE4=Candy Man
TTITLE5=Goin' Down Slow
TTITLE6=Sittin' On Top Of The World
TTITLE7=Come Back Baby
TTITLE8=Frankie and Albert
TTITLE9=Stagger Lee
TTITLE10=Juke Dance (Instrumental)
TTITLE11=My Honey Pie
TTITLE12=Satisfied
TTITLE13=Sophisticated Shade
EXTD=
EXTT0=
EXTT1=
EXTT2=
EXTT3=
EXTT4=
EXTT5=
EXTT6=
EXTT7=
EXTT8=
EXTT9=
EXTT10=Instrumental
EXTT11=
EXTT12=
EXTT13=
PLAYORDER=
